<?xml version="1.0" encoding="UTF-8"?>
<svg width="82px" height="38px" viewBox="0 0 82 38" version="1.1" xmlns="http://www.w3.org/2000/svg" xmlns:xlink="http://www.w3.org/1999/xlink">
    <title>logo</title>
    <defs>
        <linearGradient x1="50%" y1="50%" x2="0%" y2="50%" id="linearGradient-1">
            <stop stop-color="#B69C58" offset="0%"></stop>
            <stop stop-color="#1A162E" stop-opacity="0" offset="100%"></stop>
        </linearGradient>
        <path d="M2.75,0 L2.75,2.5 L20.25,2.5 L20.25,0 L2.75,0 Z M0.8,7.325 L0.8,9.85 L7,9.85 L7,10.35 C6.9,12.8 6.4,14.775 5.45,16.325 C4.5,17.725 2.7,18.925 7.10542736e-15,19.875 L1.4,22.075 C4.2,21.1 6.2,19.725 7.45,17.975 C8.725,16.075 9.425,13.525 9.55,10.35 L9.55,9.85 L13.25,9.85 L13.25,18.85 C13.25,20.675 14.125,21.6 15.9,21.6 L19.875,21.6 C20.75,21.6 21.4,21.325 21.85,20.825 C22.3,20.3 22.625,18.625 22.8,15.8 L20.45,15.05 C20.4,17.075 20.275,18.3 20.1,18.7 C19.95,19.075 19.7,19.275 19.4,19.275 L16.65,19.275 C16.075,19.275 15.8,18.95 15.8,18.3 L15.8,9.85 L22.425,9.85 L22.425,7.325 L0.8,7.325 Z" id="path-2"></path>
    </defs>
    <g id="页面-1" stroke="none" stroke-width="1" fill="none" fill-rule="evenodd">
        <g id="logo" transform="translate(0.500000, 0.300000)" fill-rule="nonzero">
            <g id="形状" transform="translate(37.400000, 7.300000)">
                <use fill-opacity="0" fill="#FFFFFF" xlink:href="#path-2"></use>
                <use fill="url(#linearGradient-1)" xlink:href="#path-2"></use>
            </g>
            <g id="次" transform="translate(20.275000, 6.000000)" fill="#B69C58">
                <path d="M11.575,6.2 L19.8,6.2 C19.3,8 18.7,9.575 18,10.925 L20.575,11.65 C21.425,9.575 22.1,7.5 22.625,5.4 L22.625,3.675 L12.275,3.675 C12.5,2.675 12.7,1.575 12.875,0.425 L10.275,0 C9.7,4.375 8.425,7.775 6.45,10.225 L8.625,11.75 C9.825,10.4 10.8,8.55 11.575,6.2 Z M13.475,7.6 C13.425,10.75 13.025,13.35 12.275,15.35 C11.25,17.7 9.1,19.675 5.825,21.325 L7.55,23.425 C11.35,21.475 13.75,19 14.75,16.05 L15.05,15.15 C16.6,18.375 18.85,21.125 21.775,23.375 L23.5,21.375 C19.8,18.875 17.225,15.525 15.825,11.275 C15.95,10.125 16.025,8.9 16.025,7.6 L13.475,7.6 Z M2.35,1.075 L0.25,2.4 C2.05,4.325 3.5,6.1 4.575,7.7 L6.625,6.275 C5.625,4.775 4.2,3.05 2.35,1.075 Z M4.45,11.875 C3.2,15.15 1.7,18.35 -3.55271368e-15,21.475 L2.425,22.575 C4.025,19.525 5.45,16.25 6.75,12.75 L4.45,11.875 Z" id="形状"></path>
            </g>
            <g id="K" fill="#CC2029">
                <polygon id="路径" points="22.45 0 5.85 16.85 5.85 0 0 0 0 35.7 5.85 35.7 5.85 23.4 10.2 19.15 24.3 35.7 32.2 35.7 14.15 15.3 29.85 0"></polygon>
            </g>
            <g id="kciyuan.cn" transform="translate(33.120000, 28.420000)" fill="#B69C58" fill-opacity="0.348646471">
                <polygon id="路径" points="7.10542736e-15 0 7.10542736e-15 7.28 0.8 7.28 0.8 5.45 1.62 4.71 3.64 7.28 4.67 7.28 2.17 4.19 4.45 2.11 3.39 2.11 0.8 4.51 0.8 0"></polygon>
                <path d="M7.52,1.97 C6.75,1.97 6.14,2.24 5.7,2.79 C5.29,3.29 5.09,3.93 5.09,4.72 C5.09,5.51 5.29,6.15 5.7,6.64 C6.13,7.16 6.73,7.42 7.51,7.42 C8.15,7.42 8.66,7.25 9.05,6.92 C9.45,6.58 9.7,6.07 9.82,5.41 L9.02,5.41 C8.9,6.3 8.39,6.75 7.51,6.75 C6.99,6.75 6.59,6.56 6.32,6.2 C6.04,5.84 5.91,5.34 5.91,4.71 C5.91,4.08 6.05,3.58 6.33,3.21 C6.62,2.83 7.02,2.64 7.52,2.64 C7.93,2.64 8.26,2.73 8.52,2.93 C8.77,3.13 8.93,3.43 9,3.83 L9.79,3.83 C9.7,3.2 9.46,2.73 9.06,2.42 C8.67,2.12 8.16,1.97 7.52,1.97 Z" id="路径"></path>
                <path d="M11.42,0.16 C11.25,0.16 11.11,0.21 10.99,0.33 C10.87,0.43 10.82,0.57 10.82,0.75 C10.82,0.92 10.87,1.06 10.99,1.18 C11.11,1.29 11.25,1.35 11.42,1.35 C11.59,1.35 11.73,1.29 11.85,1.18 C11.97,1.06 12.03,0.92 12.03,0.75 C12.03,0.57 11.97,0.43 11.85,0.33 C11.73,0.21 11.59,0.16 11.42,0.16 Z M11.02,2.11 L11.02,7.28 L11.82,7.28 L11.82,2.11 L11.02,2.11 Z" id="形状"></path>
                <polygon id="路径" points="12.75 2.11 14.8 7.16 13.91 9.26 14.78 9.26 17.61 2.11 16.73 2.11 15.2 6.19 13.62 2.11"></polygon>
                <path d="M18.28,2.11 L18.28,5.31 C18.28,6.71 18.9,7.42 20.16,7.42 C20.86,7.42 21.42,7.1 21.84,6.48 L21.84,7.28 L22.64,7.28 L22.64,2.11 L21.84,2.11 L21.84,5.26 C21.78,5.7 21.61,6.06 21.33,6.34 C21.06,6.6 20.75,6.74 20.41,6.74 C19.94,6.74 19.6,6.61 19.39,6.37 C19.18,6.13 19.08,5.76 19.08,5.27 L19.08,2.11 L18.28,2.11 Z" id="路径"></path>
                <path d="M26.13,1.97 C25.51,1.97 25.02,2.09 24.64,2.33 C24.22,2.59 23.95,3 23.84,3.54 L24.63,3.6 C24.71,3.27 24.88,3.02 25.15,2.86 C25.39,2.7 25.7,2.63 26.08,2.63 C26.98,2.63 27.43,3.06 27.43,3.93 L27.43,4.2 L26.19,4.22 C25.41,4.23 24.81,4.38 24.39,4.66 C23.91,4.96 23.68,5.4 23.68,5.99 C23.68,6.41 23.84,6.76 24.16,7.03 C24.47,7.29 24.88,7.42 25.4,7.42 C25.88,7.42 26.31,7.31 26.69,7.1 C27.01,6.92 27.28,6.69 27.48,6.41 L27.48,7.28 L28.23,7.28 L28.23,3.96 C28.23,3.36 28.07,2.89 27.77,2.55 C27.41,2.16 26.87,1.97 26.13,1.97 Z M27.43,4.8 L27.43,5.24 C27.43,5.64 27.24,6 26.87,6.31 C26.49,6.63 26.06,6.79 25.57,6.79 C25.25,6.79 24.99,6.71 24.79,6.56 C24.59,6.4 24.5,6.21 24.5,5.97 C24.5,5.22 25.08,4.84 26.24,4.82 L27.43,4.8 Z" id="形状"></path>
                <path d="M31.89,1.97 C31.55,1.97 31.24,2.05 30.96,2.21 C30.68,2.36 30.45,2.58 30.27,2.87 L30.27,2.11 L29.47,2.11 L29.47,7.28 L30.27,7.28 L30.27,4.16 C30.3,3.69 30.45,3.32 30.73,3.04 C30.99,2.78 31.3,2.65 31.66,2.65 C32.56,2.65 33.02,3.15 33.02,4.16 L33.02,7.28 L33.82,7.28 L33.82,4.1 C33.82,2.68 33.17,1.97 31.89,1.97 Z" id="路径"></path>
                <path d="M35.76,6.09 C35.58,6.09 35.44,6.15 35.33,6.27 C35.21,6.39 35.15,6.53 35.15,6.71 C35.15,6.88 35.21,7.02 35.33,7.14 C35.44,7.26 35.58,7.32 35.76,7.32 C35.92,7.32 36.07,7.26 36.19,7.14 C36.31,7.02 36.37,6.88 36.37,6.71 C36.37,6.53 36.31,6.39 36.19,6.27 C36.07,6.15 35.92,6.09 35.76,6.09 Z" id="路径"></path>
                <path d="M39.93,1.97 C39.16,1.97 38.55,2.24 38.11,2.79 C37.7,3.29 37.5,3.93 37.5,4.72 C37.5,5.51 37.7,6.15 38.11,6.64 C38.54,7.16 39.14,7.42 39.92,7.42 C40.56,7.42 41.07,7.25 41.46,6.92 C41.86,6.58 42.11,6.07 42.23,5.41 L41.43,5.41 C41.31,6.3 40.8,6.75 39.92,6.75 C39.4,6.75 39,6.56 38.73,6.2 C38.45,5.84 38.32,5.34 38.32,4.71 C38.32,4.08 38.46,3.58 38.74,3.21 C39.03,2.83 39.43,2.64 39.93,2.64 C40.34,2.64 40.67,2.73 40.93,2.93 C41.18,3.13 41.34,3.43 41.41,3.83 L42.2,3.83 C42.11,3.2 41.87,2.73 41.47,2.42 C41.08,2.12 40.57,1.97 39.93,1.97 Z" id="路径"></path>
                <path d="M45.59,1.97 C45.25,1.97 44.94,2.05 44.66,2.21 C44.38,2.36 44.15,2.58 43.97,2.87 L43.97,2.11 L43.17,2.11 L43.17,7.28 L43.97,7.28 L43.97,4.16 C44,3.69 44.15,3.32 44.43,3.04 C44.69,2.78 45,2.65 45.36,2.65 C46.26,2.65 46.72,3.15 46.72,4.16 L46.72,7.28 L47.52,7.28 L47.52,4.1 C47.52,2.68 46.87,1.97 45.59,1.97 Z" id="路径"></path>
            </g>
        </g>
    </g>
</svg>